<?xml version="1.0" encoding="utf-8"?>
<!-- Generator: Adobe Illustrator 19.1.1, SVG Export Plug-In . SVG Version: 6.00 Build 0)  -->
<svg version="1.1" id="Layer_1" xmlns="http://www.w3.org/2000/svg" xmlns:xlink="http://www.w3.org/1999/xlink" x="0px" y="0px"
	 viewBox="-137 390.9 320 60" style="enable-background:new -137 390.9 320 60;" xml:space="preserve">
<style type="text/css">
	.st0{display:none;}
	.st1{display:inline;fill:#565859;}
	.st2{fill:#0099CC;}
	.st3{fill:#005DB4;}
	.st4{fill:#A6A8AA;}
	.st5{fill:#FFFFFF;}
</style>
<g class="st0">
	<path class="st1" d="M112.5,406c-4.9,0-7.9-4.8-7.9-10.9s2.9-11,7.9-11c5.1,0,7.8,5,7.8,10.9C120.4,401.3,117.5,406,112.5,406
		L112.5,406z M112.2,411.9c9.5,0,15.9-6.4,15.9-17.1c0-9-5.5-16.5-15.4-16.5c-9.6,0-15.8,7.3-15.8,17
		C96.9,404.6,102.6,411.9,112.2,411.9L112.2,411.9z M94.9,404.6c-1.5,0.6-3.9,1.1-6.2,1.1c-6.5,0-10.4-4.1-10.4-10.6
		c0-7.2,4.5-10.8,10.3-10.8c2.7,0,4.7,0.6,6.2,1.2l1.5-5.8c-1.3-0.6-4.2-1.4-8-1.4c-9.8,0-17.8,6.1-17.8,17.2
		c0,9.3,5.8,16.3,17,16.3c3.9,0,7-0.8,8.3-1.4L94.9,404.6z M46.5,411.3v-9.8c0-5.3-0.1-9.9-0.3-14.2c1.7,3.8,3.9,8,5.8,11.5
		l6.9,12.5h7.7v-32.5h-6.8v9.5c0,4.9,0.1,9.3,0.6,13.6c-1.6-3.7-3.5-7.7-5.4-11.1l-6.8-11.9h-8.6v32.5h6.9V411.3z M17.6,397.5l2-6.9
		c0.5-1.9,1-4.3,1.5-6.3c0.6,1.9,1.2,4.3,1.7,6.3l2,6.9H17.6z M25.9,403l2.5,8.3h7.9l-10.1-32.5h-9.6l-9.9,32.5h7.6l2.3-8.3
		C16.6,403,25.9,403,25.9,403z M-11.7,397h2.5c3.7,0,6.6,1.3,6.6,4.6c0,3.4-2.9,4.7-6.3,4.7c-1.2,0-2.1,0-2.8-0.1V397z M-11.7,384.2
		c0.6-0.1,1.5-0.2,3.1-0.2c3.3,0,5.2,1.3,5.2,3.8c0,2.4-2,4-5.9,4h-2.4V384.2z M-18.9,411.2c1.6,0.2,4.3,0.5,8,0.5
		c6.5,0,10.4-1.1,12.8-2.9c2-1.6,3.4-3.9,3.4-6.9c0-4.2-2.8-7.1-6.5-8c3.6-1.5,5.3-4.2,5.3-7c0-3-1.6-5.2-3.9-6.4
		c-2.4-1.4-5.1-1.8-9.6-1.8c-3.7,0-7.6,0.3-9.5,0.7V411.2z M166,451v-9.8c0-5.3-0.1-9.9-0.3-14.2c1.7,3.8,3.9,8,5.8,11.5l7,12.5h7.7
		v-32.5h-6.8v9.4c0,4.9,0.1,9.3,0.6,13.6c-1.6-3.7-3.5-7.7-5.4-11.2l-6.8-11.9h-8.6v32.5L166,451L166,451z M137.2,437.1l2-6.9
		c0.5-1.9,1-4.3,1.5-6.3c0.6,1.9,1.2,4.3,1.7,6.3l2,6.9H137.2z M145.5,442.6l2.5,8.3h7.9l-10.1-32.5h-9.6l-9.9,32.5h7.6l2.3-8.3
		H145.5z M98.1,418.5v18.1c0,10.3,4.8,14.9,13,14.9c8.5,0,13.6-4.8,13.6-14.8v-18.2h-7.3v18.7c0,5.8-2.1,8.5-6,8.5
		c-3.7,0-5.9-2.8-5.9-8.5v-18.7H98.1z M85.6,439c0,5-1.9,6.4-5,6.4c-1.4,0-2.7-0.2-3.8-0.6l-0.8,5.9c1.4,0.5,3.7,0.8,5.4,0.8
		c7.1,0,11.5-3.2,11.5-12.5v-20.5h-7.3L85.6,439L85.6,439z M44.9,451v-9.8c0-5.3-0.1-9.9-0.3-14.2c1.7,3.8,3.9,8,5.8,11.5l7,12.5
		h7.7v-32.5h-6.8v9.4c0,4.9,0.1,9.3,0.6,13.6c-1.6-3.7-3.5-7.7-5.4-11.2l-6.8-11.9h-8.6v32.5L44.9,451L44.9,451z M16,437.1l2-6.9
		c0.5-1.9,1-4.3,1.4-6.3c0.6,1.9,1.2,4.3,1.7,6.3l2,6.9H16z M24.3,442.6l2.5,8.3h7.9l-10.1-32.5H15L5,451h7.6l2.3-8.3h9.4V442.6z
		 M-18.9,449.4c1.8,1,5.5,2,9.2,2c8.9,0,13.1-4.6,13.1-10.1c0-4.6-2.7-7.6-8.4-9.7c-4.2-1.6-6-2.5-6-4.6c0-1.6,1.5-3.1,4.7-3.1
		c3.1,0,5.5,0.9,6.8,1.5l1.6-5.9c-1.9-0.9-4.6-1.6-8.3-1.6c-7.6,0-12.3,4.2-12.3,9.8c0,4.7,3.6,7.7,9,9.7c3.9,1.4,5.5,2.5,5.5,4.5
		c0,2.1-1.8,3.5-5.2,3.5c-3.1,0-6.2-1-8.2-2L-18.9,449.4z M212.4,488h14v-1.6h-12v-25.5h-1.9V488H212.4z M194.4,476.7l3.3-9.1
		c0.6-1.7,1-3.1,1.4-4.7c0.5,1.5,0.8,2.9,1.5,4.8l3.3,9C203.9,476.7,194.4,476.7,194.4,476.7z M204.5,478.3l3.4,9.5h2l-9.8-27h-1.8
		l-9.8,27h2l3.3-9.5H204.5z M168.1,488v-13.7c0-4.5,0-7.4-0.2-10.8c1.5,2.8,3.3,5.6,5.3,8.7l10.3,15.7h1.8v-27h-1.8v13.5
		c0,4.2,0,7.3,0.3,11c-1.4-2.6-3-5.1-5.2-8.5l-10.5-16h-1.8v27L168.1,488L168.1,488z M150.9,486.6c-6.4,0-9.9-6.1-9.9-12.2
		c0-6.3,3.2-12.6,10-12.6s9.9,6.5,9.9,12.2C160.9,480.8,157.4,486.6,150.9,486.6L150.9,486.6z M150.9,488.2
		c6.2,0,12.1-4.7,12.1-14.2c0-8.3-5-13.7-11.8-13.7s-12.2,5.4-12.2,14.2C139,482.9,144.2,488.2,150.9,488.2L150.9,488.2z
		 M133.5,460.9v27h1.9v-27H133.5z M128.3,485.5c-1.6,0.8-3.8,1.2-6.1,1.2c-7.3,0-11.4-4.7-11.4-12.1c0-7.8,4.4-12.5,11.8-12.5
		c2.3,0,4.3,0.5,5.6,1.2l0.6-1.6c-0.8-0.4-2.8-1.2-6.3-1.2c-8.5,0-13.7,6.1-13.7,14.1c0,9.6,6.3,13.8,12.8,13.8
		c3.3,0,5.9-0.7,7.3-1.4L128.3,485.5z M93.1,476.7l3.3-9.1c0.6-1.7,1-3.1,1.4-4.7c0.5,1.5,0.8,2.9,1.5,4.8l3.3,9
		C102.6,476.7,93.1,476.7,93.1,476.7z M103.2,478.3l3.4,9.5h2l-9.8-27H97l-9.8,27h2l3.3-9.5H103.2z M67.4,488v-13.7
		c0-4.5,0-7.4-0.2-10.8c1.5,2.8,3.3,5.6,5.3,8.7l10.3,15.7h1.8v-27h-1.8v13.5c0,4.2,0,7.3,0.3,11c-1.4-2.6-3-5.1-5.2-8.5l-10.5-16
		h-1.8v27L67.4,488L67.4,488z M49.5,462.4c0.7-0.2,2-0.4,3.9-0.4c4.3,0,7.3,1.7,7.3,5.8c0,3.6-2.7,5.9-6.9,5.9h-4.3V462.4z
		 M47.6,487.8h1.9v-12.4h4.2c3.6,0.2,5.3,1.9,6.1,5.8c0.7,3.4,1.3,5.8,1.7,6.6h2c-0.6-1.1-1.1-3.1-2-7.3c-0.6-3-2-5.1-4.2-5.7
		c3.1-1.2,5.3-3.5,5.3-7.1c0-1.9-0.7-3.7-1.9-4.8c-1.5-1.5-3.8-2.3-7.3-2.3c-1.9,0-4.2,0.2-5.9,0.6L47.6,487.8L47.6,487.8z
		 M42.6,473.1H31.8v-10.4h11.4v-1.6H29.8v27h14v-1.6H31.7v-11.8h10.8v-1.6H42.6z M17.1,488.2H19v-25.5h8.8v-1.6H8.2v1.6H17v25.5
		H17.1z M-10.9,488.2v-13.7c0-4.5,0-7.4-0.2-10.8c1.5,2.8,3.3,5.6,5.3,8.7l10.3,15.7h1.8v-27H4.5v13.5c0,4.2,0,7.3,0.3,11
		c-1.4-2.6-3-5.1-5.2-8.5l-10.5-16h-1.8v27h1.8V488.2z M-18.9,461.1v27h1.9v-27H-18.9z"/>
	<path class="st1" d="M-150.9,447.9c0-6.6,5.3-11.9,11.9-11.9h80.6c6.6,0,11.9,5.3,11.9,11.9v28.6c0,6.6-5.3,11.9-11.9,11.9H-139
		c-6.6,0-11.9-5.3-11.9-11.9V447.9z M-124.9,388.8c0-2.9,2.4-5.3,5.3-5.3H-78c2.9,0,5.3,2.4,5.3,5.3v4.8c0,2.9-2.4,5.3-5.3,5.3
		h-41.5c-2.9,0-5.3-2.4-5.3-5.3L-124.9,388.8L-124.9,388.8z M-124.9,409.6c0-2.9,2.4-5.3,5.3-5.3H-78c2.9,0,5.3,2.4,5.3,5.3v5.1
		c0,3-2.4,5.3-5.3,5.3h-41.5c-2.9,0-5.3-2.4-5.3-5.3L-124.9,409.6L-124.9,409.6z M-140.5,390.2c0-6.6,5.3-11.9,11.9-11.9h59.7
		c6.6-0.1,11.9,5.3,11.9,11.9v23.2c0,6.6-5.3,11.9-11.9,11.9h-59.7c-6.6-0.1-11.9-5.4-11.9-12V390.2z M-135.4,470.1
		c0-2.9,2.4-5.3,5.3-5.3h62.5c2.9,0,5.3,2.4,5.3,5.3v7.7c0,2.9-2.4,5.3-5.3,5.3H-130c-2.9,0-5.3-2.4-5.3-5.3L-135.4,470.1
		L-135.4,470.1z M-135.4,446.4c0-2.9,2.4-5.3,5.3-5.3h62.5c2.9,0,5.3,2.4,5.3,5.3v7.7c0,2.9-2.4,5.3-5.3,5.3H-130
		c-2.9,0-5.3-2.4-5.3-5.3L-135.4,446.4L-135.4,446.4z M-192.8,357.4c0-8.1,6.6-14.7,14.7-14.7h127.8c8.1,0,14.7,6.6,14.7,14.7v127.7
		c0,8.2-6.6,14.7-14.7,14.7H-178c-8.1,0-14.7-6.6-14.7-14.7V357.4H-192.8z"/>
</g>
<g>
	<g>
		<path class="st2" d="M-68.3,420.9c0-8.6-2.5-15-7.5-19.2s-12.4-6.4-22.1-6.4s-17.1,2.1-22.1,6.4c-4.9,4.2-7.4,10.6-7.4,19.2
			c0,8.6,2.5,15,7.5,19.2c5,4.2,12.3,6.3,22.1,6.3c9.7,0,17.1-2.1,22.1-6.3C-70.8,435.9-68.3,429.5-68.3,420.9 M-97.9,419.5
			c0,0,4.8,0.2,9-2.6c0,0,7.9,0.7,10,9.3s-3.7,16.7-12.1,16.7s-3.4-8.4,2.1-9c3.2-0.4,3.6-3.8,3.1-5c-0.5-1.2-1.7-2.7-3.3-1.4
			c-1.5,1.3,1.9,3.9-5.1,3c0.9-0.9,1.5-2.2,1.5-3.7c0-2.9-2.3-5.2-5.2-5.2s-5.3,2.3-5.3,5.2c0,1.4,0.6,2.7,1.5,3.7
			c-7,0.9-3.6-1.7-5.1-3c-1.5-1.3-2.7,0.2-3.3,1.4c-0.5,1.2-0.1,4.6,3.1,5c5.5,0.7,10.5,9,2.1,9s-14.2-8.1-12.1-16.7
			c2.1-8.6,10-9.3,10-9.3C-102.6,419.7-97.9,419.5-97.9,419.5"/>
		<g>
			<path class="st3" d="M-71.5,427.7c0-5.6-2.2-9.7-6.7-12.5s-11.1-4.1-19.9-4.1s-15.4,1.4-19.9,4.1s-6.8,6.9-6.8,12.5
				s2.2,9.7,6.8,12.5c4.5,2.7,11.1,4.1,19.9,4.1s15.4-1.4,19.9-4.1C-73.7,437.4-71.5,433.3-71.5,427.7"/>
		</g>
	</g>
	<g>
		<path class="st4" d="M167,439.8h2.6l-0.3-2.6c-0.1-0.5-0.1-1.1-0.2-1.7c-0.3,0.5-0.5,1.1-0.8,1.7L167,439.8z M169.7,440.7h-3.1
			l-1.4,2.9H164l4.6-9.1h1.3l1.2,9.1H170L169.7,440.7z M162.7,443.7c-0.4,0-0.7-0.4-0.7-0.8c0-0.5,0.3-0.9,0.8-0.9s0.7,0.3,0.7,0.8
			C163.6,443.3,163.2,443.7,162.7,443.7 M156.1,443.1l0.4-0.9c0.5,0.3,1.2,0.6,1.9,0.6c1,0,1.9-0.6,1.9-1.7c0-0.7-0.4-1.2-1.3-1.7
			c-1.1-0.6-1.8-1.4-1.8-2.3c0-1.6,1.4-2.7,3-2.7c0.9,0,1.5,0.3,1.8,0.5l-0.4,0.9c-0.3-0.2-0.8-0.4-1.6-0.4c-1.1,0-1.8,0.7-1.8,1.5
			c0,0.7,0.5,1.2,1.4,1.7c1.1,0.6,1.7,1.3,1.7,2.4c0,1.6-1.2,2.8-3.2,2.8C157.3,443.7,156.4,443.4,156.1,443.1 M151.4,445.2
			l-0.9,0.1c0.4-0.8,1-2.2,1.3-3.2l1.3-0.1C152.7,443,151.8,444.5,151.4,445.2 M149.5,439.9l0.4-2c-0.2,0-0.4-0.1-0.8-0.1
			c-1.7,0-3,1.8-3,3.6c0,0.7,0.3,1.4,1.1,1.4C148.1,442.8,149.2,441.6,149.5,439.9 M150.2,443.6h-1c0-0.4,0.1-1,0.1-1.7
			c-0.7,1.3-1.6,1.8-2.5,1.8c-1.1,0-1.8-0.9-1.8-2.1c0-2.3,1.7-4.7,4.5-4.7c0.6,0,1.3,0.1,1.7,0.3l-0.7,3.4
			C150.3,441.7,150.2,442.9,150.2,443.6 M142.9,440.4l0.4-2.3c-0.2-0.1-0.6-0.3-1.1-0.3c-1.5,0-2.7,1.7-2.7,3.4
			c0,0.8,0.3,1.6,1.2,1.6S142.6,441.8,142.9,440.4 M144.1,434h1.1l-1.4,7.5c-0.1,0.7-0.2,1.4-0.3,2.1h-1l0.2-1.3
			c-0.6,0.9-1.4,1.4-2.3,1.4c-1.2,0-1.9-1-1.9-2.4c0-2.3,1.7-4.4,4-4.4c0.4,0,0.9,0.1,1.1,0.2L144.1,434z M136.4,439.9l0.4-2
			c-0.2,0-0.4-0.1-0.8-0.1c-1.7,0-3,1.8-3,3.6c0,0.7,0.3,1.4,1.1,1.4C135,442.8,136.1,441.6,136.4,439.9 M137.1,443.6h-1
			c0-0.4,0.1-1,0.1-1.7c-0.7,1.3-1.6,1.8-2.5,1.8c-1.1,0-1.8-0.9-1.8-2.1c0-2.3,1.6-4.7,4.5-4.7c0.6,0,1.3,0.1,1.7,0.3l-0.6,3.4
			C137.1,441.7,137,442.9,137.1,443.6 M129.8,440.2l0.4-2.2c-0.2-0.1-0.6-0.2-1.1-0.2c-1.6,0-2.7,1.7-2.7,3.3c0,0.7,0.3,1.6,1.2,1.6
			C128.6,442.7,129.6,441.5,129.8,440.2 M125,445.9l0.3-0.9c0.4,0.2,1,0.4,1.7,0.4c1.1,0,1.9-0.6,2.3-2.3l0.2-1
			c-0.6,0.9-1.4,1.4-2.3,1.4c-1.3,0-2-1.1-2-2.3c0-2.2,1.6-4.4,4.1-4.4c0.7,0,1.6,0.2,2.1,0.5l-1,5.4c-0.3,1.4-0.6,2.3-1.3,2.9
			c-0.6,0.6-1.5,0.7-2.2,0.7C126.1,446.4,125.4,446.2,125,445.9 M123.3,439.9l0.4-2c-0.2,0-0.4-0.1-0.8-0.1c-1.7,0-3,1.8-3,3.6
			c0,0.7,0.3,1.4,1.1,1.4C121.9,442.8,123,441.6,123.3,439.9 M124,443.6h-1c0-0.4,0.1-1,0.1-1.7c-0.7,1.3-1.6,1.8-2.5,1.8
			c-1.1,0-1.9-0.9-1.9-2.1c0-2.3,1.7-4.7,4.5-4.7c0.6,0,1.3,0.1,1.7,0.3l-0.7,3.4C124,441.7,123.9,442.9,124,443.6 M113.6,440.7
			l-0.3,1.8c0.3,0.2,0.7,0.4,1.2,0.4c1.4,0,2.6-1.8,2.6-3.5c0-0.7-0.3-1.5-1.2-1.5C115.1,437.9,114,438.9,113.6,440.7 M112.6,446.2
			h-1.1l1.3-6.8c0.1-0.8,0.3-1.7,0.4-2.3h1l-0.2,1.2c0.6-0.9,1.5-1.4,2.3-1.4c1.4,0,2,1.2,2,2.4c0,2.3-1.6,4.4-3.8,4.4
			c-0.7,0-1.1-0.2-1.4-0.3L112.6,446.2z M110.8,438.6c0-0.5-0.4-0.8-1-0.8c-1.1,0-1.8,1-2.1,2.1
			C109.5,439.9,110.8,439.7,110.8,438.6 M110.9,442.4l0.2,0.8c-0.5,0.3-1.3,0.5-2.1,0.5c-1.7,0-2.5-1.2-2.5-2.6c0-2,1.4-4.2,3.5-4.2
			c1.2,0,1.9,0.7,1.9,1.7c0,1.7-1.9,2.2-4.3,2.1c-0.1,0.3,0,0.9,0.1,1.2c0.3,0.6,0.8,0.9,1.4,0.9C110,442.8,110.5,442.6,110.9,442.4
			 M103.8,443.6h-1.1l0.8-4.2c0.2-0.8,0.3-1.7,0.3-2.3h1c-0.1,0.5-0.1,0.9-0.2,1.4c0.5-0.9,1.2-1.6,2-1.6c0.1,0,0.2,0,0.3,0
			l-0.2,1.1c-0.1,0-0.2,0-0.3,0c-1,0-1.8,1.2-2.1,2.7L103.8,443.6z M99.1,435.5l-0.7,3.5c0.3,0.1,0.6,0.1,0.9,0.1
			c1.5,0,2.5-0.9,2.5-2.2c0-1.1-0.8-1.5-1.8-1.5C99.7,435.4,99.3,435.4,99.1,435.5 M96.5,443.6l1.7-8.9c0.5-0.1,1.2-0.2,1.9-0.2
			c0.9,0,1.7,0.2,2.2,0.7c0.4,0.4,0.7,0.9,0.7,1.6c0,1-0.5,1.9-1.1,2.4c-0.7,0.6-1.7,0.9-2.7,0.9c-0.3,0-0.6,0-0.9-0.1l-0.7,3.6
			C97.6,443.6,96.5,443.6,96.5,443.6z M92.5,439.9l0.4-2c-0.2,0-0.4-0.1-0.8-0.1c-1.7,0-3,1.8-3,3.6c0,0.7,0.3,1.4,1.1,1.4
			C91.1,442.8,92.2,441.6,92.5,439.9 M93.2,443.6h-1c0-0.4,0.1-1,0.1-1.7c-0.7,1.3-1.6,1.8-2.5,1.8c-1.1,0-1.8-0.9-1.8-2.1
			c0-2.3,1.6-4.7,4.5-4.7c0.6,0,1.3,0.1,1.7,0.3l-0.6,3.4C93.3,441.7,93.2,442.9,93.2,443.6 M82.3,443.6h-1.1l0.9-4.6
			c0.1-0.7,0.2-1.4,0.3-1.9h1l-0.2,1.3c0.6-0.9,1.5-1.4,2.4-1.4c0.8,0,1.6,0.4,1.6,1.8c0,0.3-0.1,0.7-0.1,1l-0.7,3.8h-1.1l0.7-3.7
			c0.1-0.3,0.1-0.6,0.1-0.8c0-0.7-0.3-1.1-1-1.1c-0.8,0-1.9,1-2.2,2.6L82.3,443.6z M80.6,436c-0.4,0-0.6-0.3-0.6-0.7
			c0-0.4,0.3-0.8,0.7-0.8s0.6,0.3,0.6,0.7C81.4,435.7,81.1,436,80.6,436 M79.7,443.6h-1.1l1.2-6.5h1.1L79.7,443.6z M77.7,442.4
			l0.1,0.9c-0.3,0.2-1,0.4-1.9,0.4c-1.7,0-2.5-1.1-2.5-2.5c0-2.2,1.6-4.3,3.9-4.3c0.6,0,1.1,0.2,1.3,0.3l-0.3,0.9
			c-0.3-0.1-0.6-0.2-1.1-0.2c-1.7,0-2.7,1.7-2.7,3.2c0,1,0.5,1.7,1.6,1.7C76.8,442.8,77.3,442.6,77.7,442.4 M72.8,436
			c-0.4,0-0.6-0.3-0.6-0.7c0-0.4,0.3-0.8,0.7-0.8s0.7,0.3,0.7,0.7C73.5,435.7,73.2,436,72.8,436 M71.8,443.6h-1.1l1.2-6.5H73
			L71.8,443.6z M68.7,440.4l0.4-2.3c-0.2-0.1-0.6-0.3-1.1-0.3c-1.5,0-2.7,1.7-2.7,3.4c0,0.8,0.3,1.6,1.2,1.6
			C67.4,442.8,68.4,441.8,68.7,440.4 M69.9,434H71l-1.4,7.5c-0.1,0.7-0.2,1.4-0.3,2.1h-1l0.2-1.3c-0.6,0.9-1.4,1.4-2.3,1.4
			c-1.3,0-1.9-1-1.9-2.4c0-2.3,1.7-4.4,4-4.4c0.4,0,0.9,0.1,1.1,0.2L69.9,434z M62.9,438.6c0-0.5-0.4-0.8-1-0.8
			c-1.1,0-1.8,1-2.1,2.1C61.5,439.9,62.9,439.7,62.9,438.6 M63,442.4l0.2,0.8c-0.5,0.3-1.3,0.5-2.1,0.5c-1.7,0-2.4-1.2-2.4-2.6
			c0-2,1.4-4.2,3.5-4.2c1.2,0,1.9,0.7,1.9,1.7c0,1.7-1.9,2.2-4.3,2.1c-0.1,0.3,0,0.9,0.1,1.2c0.3,0.6,0.8,0.9,1.4,0.9
			C62,442.8,62.6,442.6,63,442.4 M57.1,443.6H56l0.6-4.9c0.1-0.9,0.3-2.2,0.5-3.1c-0.5,0.9-1,2-1.5,2.9l-2.7,5H52l-0.7-4.9
			c-0.1-1-0.2-2.1-0.3-3c-0.2,0.8-0.5,2.2-0.7,3.1l-1.2,4.9h-1l2.3-9.1h1.4l0.7,5.2c0.1,0.8,0.2,1.6,0.2,2.3
			c0.3-0.7,0.7-1.5,1.1-2.2l2.8-5.2H58L57.1,443.6z M172.5,443.7c-0.4,0-0.7-0.4-0.7-0.8c0-0.5,0.3-0.9,0.8-0.9s0.8,0.3,0.8,0.8
			C173.4,443.3,173,443.7,172.5,443.7"/>
		<g>
			<path class="st2" d="M137.7,418.3V406c0-0.2,0.1-0.5,0.3-0.6c0.2-0.2,0.4-0.3,0.7-0.3h6.2c0.2,0,0.5,0.1,0.6,0.3
				c0.2,0.2,0.3,0.4,0.3,0.6v15.3c0,2.9-1.1,5-3.3,6.2c-2,1.1-5,1.6-8.9,1.6c-4,0-7-0.5-9-1.6c-2.2-1.2-3.2-3.4-3.2-6.5v-15
				c0-0.2,0.1-0.5,0.3-0.6c0.2-0.2,0.4-0.3,0.7-0.3h6.2c0.3,0,0.5,0.1,0.7,0.3c0.2,0.2,0.3,0.4,0.3,0.6v12.4c0,1.4,0.3,2.4,1,3
				c0.7,0.6,1.8,0.9,3.3,0.9c1.4,0,2.5-0.3,3.1-0.9C137.4,420.7,137.7,419.7,137.7,418.3 M107.7,406v15.7H119c0.2,0,0.5,0.1,0.6,0.3
				c0.2,0.2,0.3,0.4,0.3,0.6v5.2c0,0.2-0.1,0.5-0.3,0.6c-0.2,0.2-0.4,0.3-0.6,0.3h-18.8c-0.3,0-0.5-0.1-0.7-0.3
				c-0.2-0.2-0.3-0.4-0.3-0.6V406c0-0.2,0.1-0.5,0.2-0.6c0.2-0.2,0.4-0.3,0.7-0.3h6.5c0.2,0,0.5,0.1,0.6,0.3
				C107.6,405.5,107.7,405.8,107.7,406 M83,414.7l-2.9,5.3h5.6L83,414.7z M97.9,428.7h-7.1c-0.1,0-0.3,0-0.5-0.2
				c-0.2-0.1-0.3-0.2-0.3-0.4l-1.5-3H77.2l-1.5,3c-0.1,0.1-0.2,0.3-0.4,0.4s-0.3,0.2-0.5,0.2h-6.2c-0.4,0-0.7-0.1-0.9-0.4
				c-0.2-0.3-0.2-0.6,0-0.9l12.4-21.8c0.1-0.1,0.2-0.2,0.4-0.3c0.2-0.1,0.3-0.1,0.5-0.1h5.3c0.1,0,0.3,0.1,0.4,0.1
				c0.2,0.1,0.3,0.2,0.4,0.4l11.7,21.8c0.2,0.3,0.2,0.7,0,0.9C98.5,428.6,98.3,428.7,97.9,428.7 M68.3,421.1c0,1.3-0.2,2.5-0.7,3.5
				s-1.2,1.8-2.1,2.5c-0.9,0.7-2,1.2-3.3,1.5c-1.3,0.3-2.8,0.5-4.4,0.5c-0.9,0-1.8,0-2.7-0.1c-0.9-0.1-1.7-0.2-2.6-0.3
				c-0.2,0-0.4-0.1-0.5-0.1s-0.3,0-0.5-0.1c-0.6-0.1-1.1-0.2-1.5-0.2c-0.4-0.1-0.7-0.2-0.9-0.2s-0.3-0.1-0.5-0.3
				c-0.1-0.2-0.2-0.3-0.2-0.5l-0.5-5.7c0-0.4,0.1-0.7,0.4-0.8c0.3-0.2,0.6-0.2,0.9-0.1c1,0.5,2.4,1,4.1,1.7c1.8,0.6,3.4,0.9,4.9,0.9
				c0.9,0,1.6-0.1,2.2-0.3c0.6-0.2,0.8-0.5,0.8-1c0-0.2-0.2-0.4-0.5-0.7c-0.5-0.3-1.7-0.7-3.6-1c-3.5-0.7-5.9-1.6-7.2-2.7
				c-1.5-1.2-2.2-2.9-2.2-5.1c0-2.5,0.9-4.4,2.7-5.8c1.8-1.3,4.3-2,7.5-2c1.4,0,2.9,0.1,4.5,0.4c0.8,0.1,1.4,0.3,2,0.4
				c0.6,0.1,1.1,0.2,1.5,0.4c0.2,0,0.3,0.1,0.4,0.3c0.1,0.2,0.2,0.3,0.2,0.5l0.5,5.2c0,0.4-0.1,0.7-0.4,0.9c-0.3,0.2-0.6,0.2-0.9,0
				c-0.6-0.3-1.3-0.6-2-0.8c-0.7-0.3-1.4-0.5-2.1-0.7c-1.5-0.4-2.8-0.6-4-0.6c-0.9,0-1.6,0.1-2.1,0.2c-0.5,0.1-0.7,0.4-0.7,0.7
				c0,0.3,0.2,0.6,0.8,0.8c0.5,0.2,1,0.3,1.7,0.5c0.7,0.2,1.4,0.4,2.3,0.5c3.3,0.6,5.5,1.6,6.7,2.8
				C67.6,417.4,68.3,419.1,68.3,421.1 M148,405.1h13.1c3.6,0,6.5,1.1,8.8,3.3c2.2,2.2,3.3,5,3.3,8.5c0,3.4-1.1,6.3-3.4,8.5
				c-2.2,2.2-5.1,3.3-8.6,3.3H148c-0.3,0-0.5-0.1-0.7-0.3c-0.2-0.2-0.3-0.4-0.3-0.6V406c0-0.2,0.1-0.5,0.3-0.6
				C147.5,405.2,147.7,405.1,148,405.1 M165,416.9c0-1.6-0.3-2.7-1.1-3.5c-0.7-0.8-1.7-1.2-3.1-1.2h-5.3v9.3h5.1
				c1.4,0,2.5-0.4,3.3-1.2C164.7,419.6,165,418.5,165,416.9"/>
			<path class="st4" d="M11.9,405.1h6.6c0.4,0,0.7,0.1,0.8,0.4c0.2,0.3,0.2,0.6,0,0.9l-11,22.2c-0.1,0.1-0.2,0.3-0.4,0.4
				c-0.2,0.1-0.3,0.2-0.5,0.2H3.5c-0.1,0-0.3-0.1-0.5-0.2c-0.2-0.1-0.3-0.2-0.4-0.4l-10.9-22.2c-0.2-0.3-0.1-0.6,0-0.9
				c0.2-0.3,0.5-0.4,0.8-0.4h6.8c0.2,0,0.3,0,0.5,0.1s0.3,0.2,0.4,0.4l5.5,11.7l5.2-11.7c0.1-0.1,0.2-0.3,0.3-0.4
				C11.6,405.1,11.7,405.1,11.9,405.1 M-15.2,416.9c0-1.7-0.5-3-1.5-3.9c-1-0.9-2.4-1.3-4.3-1.3s-3.3,0.4-4.3,1.3
				c-1,0.9-1.5,2.2-1.5,3.9c0,1.7,0.5,3,1.5,3.9s2.4,1.3,4.3,1.3s3.3-0.4,4.3-1.3S-15.2,418.6-15.2,416.9 M-6.8,416.9
				c0,4.1-1.2,7.2-3.6,9.2s-5.9,3-10.6,3s-8.2-1-10.6-3s-3.6-5.1-3.6-9.2c0-4.1,1.2-7.2,3.6-9.2s5.9-3,10.6-3s8.2,1,10.6,3
				S-6.8,412.8-6.8,416.9 M-47.7,412.4c0.6,0.8,1.2,1.5,1.7,2.3c0.6,0.8,1.1,1.5,1.7,2.3v-11c0-0.2,0.1-0.5,0.3-0.6
				c0.2-0.2,0.4-0.3,0.7-0.3h5.9c0.3,0,0.5,0.1,0.7,0.3c0.2,0.2,0.3,0.4,0.3,0.6v21.8c0,0.2-0.1,0.5-0.3,0.6
				c-0.2,0.2-0.4,0.3-0.7,0.3h-6.7c-0.1,0-0.2,0-0.4-0.1c-0.2-0.1-0.3-0.2-0.4-0.3l-8.5-11.4v10.9c0,0.2-0.1,0.5-0.3,0.6
				c-0.2,0.2-0.4,0.3-0.7,0.3h-5.9c-0.2,0-0.5-0.1-0.6-0.3c-0.2-0.2-0.3-0.4-0.3-0.6V406c0-0.2,0.1-0.5,0.3-0.6
				c0.2-0.2,0.4-0.3,0.6-0.3h6.7c0.1,0,0.3,0,0.4,0.1c0.2,0.1,0.3,0.2,0.3,0.3c0.9,1.2,1.7,2.4,2.6,3.5L-47.7,412.4z M46.4,416.9
				c0,4.1-1.2,7.2-3.6,9.2c-2.4,2-5.9,3-10.6,3c-4.7,0-8.2-1-10.6-3c-2.4-2-3.6-5.1-3.6-9.2c0-4.1,1.2-7.2,3.6-9.2
				c2.4-2,5.9-3,10.6-3c4.7,0,8.2,1,10.6,3S46.4,412.8,46.4,416.9 M38,416.9c0-1.7-0.5-3-1.5-3.9c-1-0.9-2.4-1.3-4.3-1.3
				c-1.9,0-3.3,0.4-4.3,1.3c-1,0.9-1.5,2.2-1.5,3.9c0,1.7,0.5,3,1.5,3.9s2.4,1.3,4.3,1.3c1.9,0,3.3-0.4,4.3-1.3S38,418.6,38,416.9"
				/>
		</g>
	</g>
</g>
<path class="st5" d="M-88.9,416.9c0,0,7.9,0.7,10,9.3s-3.7,16.7-12.1,16.7s-3.4-8.4,2.1-9c3.2-0.4,3.6-3.8,3.1-5
	c-0.5-1.2-1.7-2.7-3.3-1.4c-1.5,1.3,1.9,3.9-5.1,3c0.9-0.9,1.5-2.2,1.5-3.7c0-2.9-2.3-5.2-5.2-5.2s-5.3,2.3-5.3,5.2
	c0,1.4,0.6,2.7,1.5,3.7c-7,0.9-3.6-1.7-5.1-3c-1.5-1.3-2.7,0.2-3.3,1.4c-0.5,1.2-0.1,4.6,3.1,5c5.5,0.7,10.4,9,2.1,9
	c-8.4,0-14.2-8.1-12.1-16.7c2.1-8.6,10-9.3,10-9.3c4.2,2.8,8.9,2.6,8.9,2.6s0.1,0,0.2,0C-96.7,419.5-92.5,419.3-88.9,416.9"/>
<path class="st5" d="M-107.7,407.7c0-5.5,4.4-9.9,9.9-9.9s9.9,4.4,9.9,9.9s-4.4,9.9-9.9,9.9S-107.7,413.2-107.7,407.7"/>
</svg>
